<svg width="19.9999998px" height="19.9999998px" viewBox="0 0 19.9999998 19.9999998" version="1.1" xmlns="http://www.w3.org/2000/svg" xmlns:xlink="http://www.w3.org/1999/xlink">
    <title>助理应用市场备份 2</title>
    <g id="页面-1" stroke="none" stroke-width="1" fill="none" fill-rule="evenodd">
        <g id="画板" transform="translate(-437, -229)" fill="currentColor" fill-rule="nonzero">
            <g id="助理应用市场备份-2" transform="translate(437, 229)">
                <g id="应用备份-2" opacity="0">
                    <rect id="矩形" x="0" y="0" width="19.9999998" height="19.9999998"></rect>
                </g>
                <g id="编组-5" transform="translate(1, 1)">
                    <path d="M5.29411765,0 C7.04843391,0 8.47058824,1.42215432 8.47058824,3.17647059 L8.47058824,8.47058824 L3.17647059,8.47058824 C1.42215432,8.47058824 0,7.04843391 0,5.29411765 L0,3.17647059 C0,1.42215432 1.42215432,0 3.17647059,0 L5.29411765,0 Z M5.29411765,1 L3.17647059,1 C1.97443907,1 1,1.97443907 1,3.17647059 L1,5.29411765 C1,6.49614916 1.97443907,7.47058824 3.17647059,7.47058824 L7.47,7.47 L7.47058824,3.17647059 C7.47058824,2.02670131 6.57904095,1.08516406 5.44955229,1.00546474 L5.29411765,1 Z" id="矩形"></path>
                    <path d="M5.29411765,9.52941176 C7.04843391,9.52941176 8.47058824,10.9515661 8.47058824,12.7058824 L8.47058824,18 L3.17647059,18 C1.42215432,18 0,16.5778457 0,14.8235294 L0,12.7058824 C0,10.9515661 1.42215432,9.52941176 3.17647059,9.52941176 L5.29411765,9.52941176 Z M5.29411765,10.5294118 L3.17647059,10.5294118 C1.97443907,10.5294118 1,11.5038508 1,12.7058824 L1,14.8235294 C1,16.0255609 1.97443907,17 3.17647059,17 L7.47,16.9994118 L7.47058824,12.7058824 C7.47058824,11.5561131 6.57904095,10.6145758 5.44955229,10.5348765 L5.29411765,10.5294118 Z" id="矩形备份-2" transform="translate(4.2353, 13.7647) scale(1, -1) translate(-4.2353, -13.7647)"></path>
                    <path d="M14.8235294,0 C16.5778457,0 18,1.42215432 18,3.17647059 L18,8.47058824 L12.7058824,8.47058824 C10.9515661,8.47058824 9.52941176,7.04843391 9.52941176,5.29411765 L9.52941176,3.17647059 C9.52941176,1.42215432 10.9515661,0 12.7058824,0 L14.8235294,0 Z M14.8235294,1 L12.7058824,1 C11.5038508,1 10.5294118,1.97443907 10.5294118,3.17647059 L10.5294118,5.29411765 C10.5294118,6.49614916 11.5038508,7.47058824 12.7058824,7.47058824 L16.9994118,7.47 L17,3.17647059 C17,2.02670131 16.1084527,1.08516406 14.9789641,1.00546474 L14.8235294,1 Z" id="矩形备份" transform="translate(13.7647, 4.2353) scale(-1, 1) translate(-13.7647, -4.2353)"></path>
                    <path d="M14.8235294,9.52941176 C16.5778457,9.52941176 18,10.9515661 18,12.7058824 L18,18 L12.7058824,18 C10.9515661,18 9.52941176,16.5778457 9.52941176,14.8235294 L9.52941176,12.7058824 C9.52941176,10.9515661 10.9515661,9.52941176 12.7058824,9.52941176 L14.8235294,9.52941176 Z M14.8235294,10.5294118 L12.7058824,10.5294118 C11.5038508,10.5294118 10.5294118,11.5038508 10.5294118,12.7058824 L10.5294118,14.8235294 C10.5294118,16.0255609 11.5038508,17 12.7058824,17 L16.9994118,16.9994118 L17,12.7058824 C17,11.5561131 16.1084527,10.6145758 14.9789641,10.5348765 L14.8235294,10.5294118 Z" id="矩形备份-3" transform="translate(13.7647, 13.7647) scale(-1, -1) translate(-13.7647, -13.7647)"></path>
                </g>
            </g>
        </g>
    </g>
</svg>
