<svg width="18px" height="18px" viewBox="0 0 18 18" version="1.1" xmlns="http://www.w3.org/2000/svg" xmlns:xlink="http://www.w3.org/1999/xlink">
    <title>素材库备份</title>
    <g id="页面-1" stroke="none" stroke-width="1" fill="none" fill-rule="evenodd">
        <g id="画板" transform="translate(-330, -230)">
            <g id="素材库备份" transform="translate(329, 229)">
                <rect id="矩形" x="0" y="0" width="20" height="20"></rect>
                <g id="编组" transform="translate(1, 1)" fill="currentColor" fill-rule="nonzero">
                    <path d="M5.67939838,0 C6.83903123,0 7.78864568,0.899195634 7.86902873,2.03837389 L7.87454035,2.19514197 L14.5684948,2.19514197 C16.4004905,2.19514197 17.8971788,3.63076373 17.9949225,5.43837006 L18,5.62664714 L0,5.62664714 L0,3.93727017 C0,1.7627759 1.7627759,0 3.93727017,0 L5.67939838,0 Z M5.67939838,1 L3.93727017,1 C2.31506065,1 1,2.31506065 1,3.93727017 L1,4.626 L16.784,4.626 L16.762272,4.57674337 C16.3922062,3.80488691 15.626788,3.2586272 14.728367,3.20031395 L14.5684948,3.19514197 L6.87454035,3.19514197 L6.87454035,2.19514197 C6.87454035,1.53508328 6.33945706,1 5.67939838,1 Z" id="形状"></path>
                    <path d="M17.9181746,6.75 L17.9181746,13.5022729 C17.9181746,15.986299 15.9044736,18 13.4204475,18 L4.49772711,18 C2.01370102,18 0,15.986299 0,13.5022729 L0,6.75 L17.9181746,6.75 Z M16.918,7.75 L1,7.75 L1,13.5022729 C1,15.3696229 2.4633267,16.8951946 4.30581661,16.9948245 L4.49772711,17 L13.4204475,17 C15.3521888,17 16.9181746,15.4340142 16.9181746,13.5022729 L16.918,7.75 Z" id="矩形"></path>
                </g>
            </g>
        </g>
    </g>
</svg>
