<svg width="17.6167024px" height="19px" viewBox="0 0 17.6167024 19" version="1.1" xmlns="http://www.w3.org/2000/svg" xmlns:xlink="http://www.w3.org/1999/xlink">
    <title>智能体备份 3</title>
    <g id="页面-1" stroke="none" stroke-width="1" fill="none" fill-rule="evenodd">
        <g id="画板" transform="translate(-152.1916, -229.5)">
            <g id="智能体备份-3" transform="translate(151, 229)">
                <rect id="矩形" x="0" y="0" width="20" height="20"></rect>
                <g id="编组-3" transform="translate(1.6916, 1)" fill="currentColor" fill-rule="nonzero">
                    <path d="M6.13961968,0.0811098593 C7.48163541,-0.693703286 9.13506698,-0.693703286 10.4770827,0.0811098593 L14.9479709,2.66237834 C16.2899866,3.43719149 17.1167024,4.86910523 17.1167024,6.41873152 L17.1167024,11.5812685 C17.1167024,13.1308948 16.2899866,14.5628085 14.9479709,15.3376217 L10.4770827,17.9188901 C9.13506698,18.6937033 7.48163541,18.6937033 6.13961968,17.9188901 L1.66873152,15.3376217 C0.326715785,14.5628085 -0.5,13.1308948 -0.5,11.5812685 L-0.5,6.41873152 C-0.5,6.14258914 -0.276142375,5.91873152 4.156675e-13,5.91873152 C0.276142375,5.91873152 0.5,6.14258914 0.5,6.41873152 L0.5,11.5812685 C0.5,12.7736292 1.13611686,13.8754159 2.16873152,14.4715963 L6.63961968,17.0528647 C7.67223433,17.6490451 8.94446806,17.6490451 9.97708271,17.0528647 L14.4479709,14.4715963 C15.4805855,13.8754159 16.1167024,12.7736292 16.1167024,11.5812685 L16.1167024,6.41873152 C16.1167024,5.22637082 15.4805855,4.12458409 14.4479709,3.52840374 L9.97708271,0.947135263 C8.94446806,0.350954912 7.67223433,0.350954912 6.63961968,0.947135263 C6.40047336,1.08520645 6.09467816,1.00326887 5.95660697,0.764122561 C5.81853579,0.524976249 5.90047336,0.219181047 6.13961968,0.0811098593 Z" id="路径" transform="translate(8.3084, 9) scale(-1, 1) translate(-8.3084, -9)"></path>
                    <path d="M5.16779545,11.0476742 C5.47292219,10.918429 5.82505019,11.0610092 5.95429535,11.366136 C6.03416053,11.5546847 6.22187031,11.8694058 6.51790965,12.1836264 C6.99789001,12.6930846 7.58552482,12.9899809 8.3083512,12.9899809 C9.44185932,12.9899809 10.2073418,12.4711689 10.6947183,11.35928 C10.8277498,11.055785 11.1816246,10.9175971 11.4851196,11.0506286 C11.7886147,11.1836602 11.9268026,11.537535 11.793771,11.84103 C11.1182083,13.3822424 9.92642848,14.1899809 8.3083512,14.1899809 C7.22544964,14.1899809 6.3361915,13.7406926 5.64448925,13.0065096 C5.23751903,12.5745454 4.98018038,12.1430819 4.84933366,11.8341741 C4.7200885,11.5290473 4.8626687,11.1769193 5.16779545,11.0476742 Z" id="路径-7"></path>
                    <path d="M12.8484212,0.00654574775 C12.9082358,0.026620667 12.9443752,0.13649724 13.0166311,0.356227599 C13.3193041,1.27652935 13.470652,1.73668022 13.7562124,2.10124167 C13.8877784,2.26917522 14.0391781,2.42057502 14.2071115,2.55214121 C14.5716498,2.83770181 15.031823,2.98904984 15.9521239,3.29172312 C16.1718541,3.36397915 16.2817306,3.40011856 16.3018055,3.45993317 C16.3105331,3.48593369 16.3105331,3.51407281 16.3018055,3.54007334 C16.2817306,3.59988794 16.1718541,3.63602735 15.9521239,3.70828339 C15.031823,4.01095666 14.5716498,4.16230469 14.2071115,4.44786529 C14.0391781,4.57943148 13.8877784,4.73083128 13.7562124,4.89876484 C13.470652,5.2633035 13.3193041,5.72347716 13.0166311,6.64380169 C12.9443752,6.86350926 12.9082358,6.97340862 12.8484212,6.99343797 C12.8224243,7.00218734 12.7942781,7.00218734 12.7682811,6.99343797 C12.7084666,6.97340862 12.6723272,6.86350926 12.6000713,6.64380169 C12.2973983,5.72347716 12.1460504,5.2633035 11.8604673,4.89876484 C11.7289153,4.73082641 11.5775225,4.57942586 11.4095909,4.44786529 C11.0450298,4.16230469 10.5848794,4.01095666 9.66457846,3.70828339 C9.44482552,3.63602735 9.33497184,3.59988794 9.31489694,3.54007334 C9.30616928,3.51407281 9.30616928,3.48593369 9.31489694,3.45993317 C9.33497184,3.40011856 9.44482552,3.36397915 9.66457846,3.29172312 C10.5848794,2.98904984 11.0450298,2.83770181 11.4095909,2.55214121 C11.5775225,2.42058064 11.7289153,2.26918009 11.8604673,2.10124167 C12.1460504,1.73668022 12.2973983,1.27652935 12.6000713,0.356227599 C12.6723272,0.13649724 12.7084666,0.026620667 12.7682811,0.00654574775 C12.7942816,-0.00218191592 12.8224207,-0.00218191592 12.8484212,0.00654574775 Z M12.8073512,2.497 L12.7703354,2.55325844 C12.7322742,2.60752058 12.6917297,2.66169144 12.6476949,2.7179042 C12.466389,2.9493581 12.2577385,3.1580194 12.0262365,3.33938213 C11.9700234,3.3834138 11.9158524,3.42395537 11.8615902,3.46201397 L11.8053512,3.5 L11.8616288,3.53802274 C11.8887626,3.55705417 11.9158738,3.57670651 11.9432291,3.59710565 L12.0262939,3.66066939 C12.2577385,3.8419871 12.466389,4.0506484 12.6476661,4.28206561 C12.6917042,4.33827889 12.7322512,4.39244986 12.7703145,4.44671198 L12.8083512,4.502 L12.8463775,4.446708 C12.865409,4.41957536 12.8850615,4.39246535 12.9054609,4.36511129 L12.9690255,4.28205023 C13.1503328,4.05062602 13.3589722,3.84198647 13.590442,3.66064309 C13.6466534,3.61660998 13.7008222,3.57606749 13.7550819,3.53800834 L13.8103512,3.5 L13.7550511,3.46197407 C13.727919,3.44294278 13.7008096,3.42329054 13.673456,3.40289141 L13.5903962,3.33932748 C13.3589722,3.15802003 13.1503328,2.94938048 12.9689709,2.71788651 C12.9249393,2.66167342 12.8843977,2.60750241 12.8463392,2.55324018 L12.8073512,2.497 Z" id="路径"></path>
                </g>
            </g>
        </g>
    </g>
</svg>
