<svg width="18px" height="16px" viewBox="0 0 18 16" version="1.1" xmlns="http://www.w3.org/2000/svg" xmlns:xlink="http://www.w3.org/1999/xlink">
    <title>聊天助理备份 3</title>
    <g id="页面-1" stroke="none" stroke-width="1" fill="none" fill-rule="evenodd">
        <g id="画板" transform="translate(-58, -231)">
            <g id="聊天助理备份-3" transform="translate(57, 229)">
                <rect id="矩形" x="0" y="0" width="20" height="20"></rect>
                <path d="M15,2 C17.209139,2 19,3.790861 19,6 L19,18 L5,18 C2.790861,18 1,16.209139 1,14 L1,6 C1,3.790861 2.790861,2 5,2 L15,2 Z M15,3 L5,3 C3.34314575,3 2,4.34314575 2,6 L2,14 C2,15.6568542 3.34314575,17 5,17 L18,17 L18,6 C18,4.40231912 16.75108,3.09633912 15.1762728,3.00509269 L15,3 Z" id="形状结合" fill="currentColor" fill-rule="nonzero"></path>
                <ellipse id="椭圆形" fill="currentColor" cx="12.7179943" cy="7.06666197" rx="1.0259995" ry="1.01333239"></ellipse>
                <ellipse id="椭圆形备份-19" fill="currentColor" cx="7.42599688" cy="7.06666197" rx="1.0259995" ry="1.01333239"></ellipse>
                <path d="M6.83398785,9.44751916 C7.13911459,9.318274 7.49124259,9.4608542 7.62048774,9.76598095 C7.70035293,9.95452965 7.88806271,10.2692508 8.18410205,10.5834714 C8.66408241,11.0929296 9.25171722,11.3898259 9.97454359,11.3898259 C11.1080517,11.3898259 11.8735342,10.8710139 12.3609107,9.759125 C12.4939422,9.45562997 12.847817,9.31744204 13.151312,9.45047363 C13.4548071,9.58350521 13.592995,9.93737996 13.4599634,10.240875 C12.7844007,11.7820873 11.5926209,12.5898259 9.97454359,12.5898259 C8.89164204,12.5898259 8.0023839,12.1405375 7.31068165,11.4063546 C6.90371143,10.9743904 6.64637278,10.5429268 6.51552605,10.2340191 C6.3862809,9.92889231 6.5288611,9.57676431 6.83398785,9.44751916 Z" id="路径-7" fill="currentColor" fill-rule="nonzero"></path>
            </g>
        </g>
    </g>
</svg>
